<svg xmlns="http://www.w3.org/2000/svg" width="900" height="360" viewBox="0 0 900 360" role="img" aria-labelledby="title desc">
  <title id="title">Solis RJ45 meter pinout</title>
  <desc id="desc">RJ45 meterconnector met pin 1 als RS485 A en pin 2 als RS485 B.</desc>
  <defs>
    <style>
      .bg{fill:#f7f8fa}
      .plug{fill:#fff;stroke:#111827;stroke-width:3;rx:8}
      .pin{fill:#e5e7eb;stroke:#374151;stroke-width:2}
      .pin1{fill:#fed7aa}
      .pin2{fill:#d1d5db}
      .title{fill:#111827;font:bold 24px Arial,sans-serif}
      .label{fill:#111827;font:18px Arial,sans-serif}
      .small{fill:#4b5563;font:15px Arial,sans-serif}
    </style>
  </defs>
  <rect class="bg" x="0" y="0" width="900" height="360"/>
  <text class="title" x="40" y="48">Solis meterpoort RJ45 pinout</text>
  <text class="small" x="40" y="78">Vooraanzicht op de stekkercontacten. Controleer altijd je eigen Solis handleiding.</text>
  <rect class="plug" x="170" y="120" width="560" height="120"/>
  <rect class="pin pin1" x="195" y="145" width="55" height="70"/>
  <rect class="pin pin2" x="260" y="145" width="55" height="70"/>
  <rect class="pin" x="325" y="145" width="55" height="70"/>
  <rect class="pin" x="390" y="145" width="55" height="70"/>
  <rect class="pin" x="455" y="145" width="55" height="70"/>
  <rect class="pin" x="520" y="145" width="55" height="70"/>
  <rect class="pin" x="585" y="145" width="55" height="70"/>
  <rect class="pin" x="650" y="145" width="55" height="70"/>
  <text class="label" x="212" y="270">1</text>
  <text class="label" x="277" y="270">2</text>
  <text class="label" x="342" y="270">3</text>
  <text class="label" x="407" y="270">4</text>
  <text class="label" x="472" y="270">5</text>
  <text class="label" x="537" y="270">6</text>
  <text class="label" x="602" y="270">7</text>
  <text class="label" x="667" y="270">8</text>
  <text class="label" x="185" y="315">Pin 1: RS485 A</text>
  <text class="label" x="405" y="315">Pin 2: RS485 B</text>
</svg>

