<svg xmlns="http://www.w3.org/2000/svg" width="1080" height="520" viewBox="0 0 1080 520" role="img" aria-labelledby="title desc">
  <title id="title">KinCony naar Solis RS485 aansluitschema</title>
  <desc id="desc">KinCony onboard RS485 485A gaat naar Solis RJ45 pin 1; KinCony 485B gaat naar Solis RJ45 pin 2.</desc>
  <defs>
    <style>
      .bg{fill:#f7f8fa}
      .panel{fill:#fff;stroke:#202632;stroke-width:2;rx:10}
      .term{fill:#eef2ff;stroke:#1d4ed8;stroke-width:2;rx:6}
      .rj{fill:#ecfdf5;stroke:#047857;stroke-width:2;rx:6}
      .title{fill:#111827;font:bold 24px Arial,sans-serif}
      .label{fill:#111827;font:18px Arial,sans-serif}
      .small{fill:#4b5563;font:15px Arial,sans-serif}
      .a{stroke:#f97316;stroke-width:5;fill:none}
      .b{stroke:#1f2937;stroke-width:5;fill:none}
      .dash{stroke-dasharray:9 7}
    </style>
  </defs>
  <rect class="bg" x="0" y="0" width="1080" height="520"/>
  <text class="title" x="40" y="48">RS485 bekabeling</text>
  <rect class="panel" x="70" y="95" width="340" height="310"/>
  <text class="title" x="105" y="140">KinCony ESP32-S3</text>
  <text class="small" x="105" y="168">Onboard RS485 terminal</text>
  <rect class="term" x="125" y="215" width="210" height="54"/>
  <text class="label" x="155" y="250">485A</text>
  <rect class="term" x="125" y="295" width="210" height="54"/>
  <text class="label" x="155" y="330">485B</text>
  <rect class="panel" x="670" y="95" width="340" height="310"/>
  <text class="title" x="705" y="140">Solis S6</text>
  <text class="small" x="705" y="168">Meter RJ45 poort</text>
  <rect class="rj" x="735" y="205" width="210" height="64"/>
  <text class="label" x="765" y="243">Pin 1 - RS485 A</text>
  <rect class="rj" x="735" y="295" width="210" height="64"/>
  <text class="label" x="765" y="333">Pin 2 - RS485 B</text>
  <path class="a" d="M335 242 C475 242, 520 237, 735 237"/>
  <path class="b" d="M335 322 C475 322, 520 327, 735 327"/>
  <text class="small" x="430" y="226">485A naar RJ45 pin 1</text>
  <text class="small" x="430" y="306">485B naar RJ45 pin 2</text>
  <text class="small" x="70" y="455">Geen meterdetectie? Wissel A en B om. Gebruik geen netspanning op deze RS485 aansluitingen.</text>
</svg>

